<svg width="27" height="18" viewBox="0 0 27 18" fill="none" xmlns="http://www.w3.org/2000/svg">
<path d="M26.6269 8.58231C26.5743 8.45527 26.4985 8.34109 26.3948 8.23539L18.4644 0.305674C18.0589 -0.100535 17.3528 -0.103245 16.9432 0.305674C16.5262 0.72408 16.5262 1.40505 16.9442 1.82447L23.0408 7.92032H1.07464C0.482098 7.92032 0 8.40242 0 8.99462C0 9.58683 0.482098 10.0689 1.07464 10.0689H23.0411L16.9449 16.1661C16.5272 16.5839 16.5262 17.2648 16.9463 17.6873C17.1495 17.8892 17.4189 18 17.7045 18C17.9918 18 18.2618 17.8885 18.4641 17.6853L26.3873 9.76232C26.4941 9.65729 26.5764 9.53465 26.6201 9.42421C26.6797 9.28869 26.7099 9.14403 26.7099 8.99496C26.7095 8.85064 26.6811 8.71038 26.6269 8.58231Z" fill="white"/>
</svg>
