<svg width="21" height="20" viewBox="0 0 21 20" fill="none" xmlns="http://www.w3.org/2000/svg">
<path fill-rule="evenodd" clip-rule="evenodd" d="M12.0355 0.67768L19.1037 6.44118C19.8013 7.0097 20.209 7.86024 20.2135 8.76061L20.2611 16.9671C20.2702 18.633 18.9281 19.991 17.2632 20H3.01584C1.34988 20 0 18.65 0 16.9853V16.9672L0.0475659 8.76076C0.0520961 7.86038 0.459816 7.00985 1.15744 6.44132L8.22562 0.677825C9.33437 -0.225942 10.9266 -0.226087 12.0355 0.67768ZM10.1306 10.165C9.65039 10.165 9.26078 10.5546 9.26078 11.0348V16.2309C9.26078 16.7111 9.65039 17.1007 10.1306 17.1007C10.6107 17.1007 11.0004 16.7111 11.0004 16.2309V11.0348C11.0004 10.5546 10.6107 10.165 10.1306 10.165Z" fill="white"/>
</svg>
