<svg width="14" height="14" viewBox="0 0 14 14" fill="none" xmlns="http://www.w3.org/2000/svg">
<path d="M13.9892 5.60601C14.0592 5.23917 13.7794 4.79896 13.4296 4.79896L9.44272 4.21202L7.62412 0.396887C7.55417 0.250151 7.48423 0.176783 7.34434 0.103415C6.99461 -0.116689 6.57493 0.0300471 6.36509 0.396887L4.61644 4.21202L0.629515 4.79896C0.419676 4.79896 0.279784 4.87233 0.209838 5.01907C-0.069946 5.31254 -0.069946 5.75275 0.209838 6.04622L3.07763 8.98093L2.37817 13.1629C2.37817 13.3096 2.37817 13.4564 2.44811 13.6031C2.65795 13.97 3.07763 14.1167 3.42736 13.8966L6.99461 11.9157L10.5619 13.8966C10.6318 13.97 10.7717 13.97 10.9116 13.97C10.9815 13.97 10.9815 13.97 11.0515 13.97C11.4012 13.8966 11.681 13.5297 11.611 13.0895L10.9116 8.90757L13.7794 5.97285C13.9193 5.89948 13.9892 5.75275 13.9892 5.60601Z" fill="#D8A353"/>
</svg>
